<svg xmlns="http://www.w3.org/2000/svg" width="1024" height="1024" viewBox="0 0 1024 1024" fill="none">
<rect width="1024" height="1024" rx="32" fill="black"/>
<path d="M624.614 676.566C624.614 688.556 624.614 694.551 628.339 698.276C632.063 702.001 638.059 702.001 650.049 702.001H676.565C688.555 702.001 694.55 702.001 698.275 698.276C702 694.551 702 688.556 702 676.566V498.742C702 486.752 702 480.757 698.275 477.032C694.55 473.307 688.555 473.307 676.565 473.307H650.049C638.058 473.307 632.063 473.307 628.339 469.582C624.614 465.858 624.614 459.863 624.614 447.873V422.511C624.614 410.521 624.614 404.526 620.889 400.801C617.164 397.076 611.169 397.076 599.179 397.076H576.127C564.137 397.076 558.142 397.076 554.417 400.801C550.693 404.526 550.693 410.521 550.693 422.511V447.873C550.693 459.863 550.693 465.858 546.968 469.582C543.243 473.307 537.248 473.307 525.258 473.307H498.741C486.751 473.307 480.756 473.307 477.031 469.582C473.307 465.858 473.307 459.863 473.307 447.873V422.511C473.307 410.521 473.307 404.526 469.582 400.801C465.857 397.076 459.862 397.076 447.872 397.076H424.821C412.831 397.076 406.836 397.076 403.111 393.351C399.386 389.627 399.386 383.631 399.386 371.641V347.435C399.386 335.445 399.386 329.45 395.661 325.725C391.937 322 385.941 322 373.951 322H347.435C335.445 322 329.45 322 325.725 325.725C322 329.45 322 335.445 322 347.435V676.566C322 688.556 322 694.551 325.725 698.276C329.45 702.001 335.445 702.001 347.435 702.001H373.951C385.941 702.001 391.936 702.001 395.661 698.276C399.385 694.551 399.385 688.556 399.385 676.566V499.897C399.385 487.907 399.385 481.912 403.11 478.187C406.835 474.462 412.83 474.462 424.82 474.462H447.872C459.862 474.462 465.857 474.462 469.582 478.187C473.307 481.912 473.307 487.907 473.307 499.897V525.259C473.307 537.249 473.307 543.244 477.031 546.969C480.756 550.693 486.751 550.693 498.741 550.693H525.258C537.248 550.693 543.243 550.693 546.968 546.969C550.693 543.244 550.693 537.249 550.693 525.259V499.897C550.693 487.907 550.693 481.912 554.417 478.187C558.142 474.462 564.137 474.462 576.127 474.462H599.179C611.169 474.462 617.164 474.462 620.889 478.187C624.614 481.912 624.614 487.907 624.614 499.897V676.566Z" fill="white" stroke="white" stroke-width="0.52989"/>
</svg>